<svg width="194" height="96" viewBox="0 0 194 96" fill="none" xmlns="http://www.w3.org/2000/svg">
<path d="M16.2094 68.3999V69.7999H19.7694C17.7894 71.9999 14.8094 74.2599 12.3294 75.4199C12.6694 75.7399 13.0694 76.2399 13.2494 76.6199C16.0494 75.1199 19.4494 72.3399 21.4894 69.7999C23.5694 72.4799 26.7294 75.0599 29.7494 76.4799C29.9494 76.0999 30.4494 75.4799 30.7494 75.1799C27.5894 73.8599 24.1494 71.1799 22.2894 68.3999H16.2094ZM22.2094 80.8999H27.8894V79.5799H22.2094V76.5199H27.1094V75.1799H15.9494V76.5199H20.6894V79.5799H15.0894V80.8999H20.6894V84.2199H13.1094V85.5799H30.0094V84.2199H22.2094V80.8999ZM37.9294 75.0199V76.5999H34.8494V75.0199H37.9294ZM34.8494 79.4399V77.7199H37.9294V79.4399H34.8494ZM36.8494 81.3999C37.1094 81.8799 37.3894 82.3799 37.6494 82.9199L34.8494 83.9999V80.5799H39.2494V73.8799H33.5294V83.7199C33.5294 84.4399 33.1094 84.7199 32.8094 84.8399C33.0294 85.1399 33.2494 85.7799 33.3294 86.0999C33.6894 85.8399 34.2294 85.5399 38.1494 83.9399C38.4494 84.5399 38.6894 85.0799 38.8494 85.5199L39.9694 84.9599C39.5494 83.9799 38.6294 82.2399 37.8894 80.9799L36.8494 81.3999ZM34.9294 71.5999V72.6799H38.3094V71.5999H34.9294ZM36.3494 67.7199C35.4494 69.3999 33.7894 70.9799 32.2294 71.9799C32.4494 72.2599 32.7894 72.9799 32.8894 73.2599C34.1694 72.4199 35.4494 71.1799 36.4694 69.8199C37.5094 70.4999 38.7094 71.3199 39.3294 71.8599L40.0094 70.7199C39.3694 70.2199 38.1694 69.4399 37.1694 68.8199C37.3094 68.5999 37.4494 68.3799 37.5694 68.1399L36.3494 67.7199ZM48.2294 81.1399V83.9399H42.7094V81.1399H48.2294ZM47.3894 74.4199V76.9599H42.7094V74.4199H47.3894ZM42.7094 78.1999H48.6694V73.1999H41.3894V86.0999H42.7094V85.2199H48.2294V85.9999H49.5494V79.8599H42.7094V78.1999ZM45.6894 70.1799L46.2694 69.8799C46.0494 69.3199 45.6294 68.4399 45.2494 67.7599L43.9894 68.2999C44.2694 68.8599 44.6094 69.5999 44.8494 70.1799H40.1094V73.4199H41.3294V71.3999H49.0694V73.4199H50.3294V70.1799H45.6894ZM56.4494 75.2399C55.7494 74.6199 54.3294 73.8599 53.1694 73.3999L52.3294 74.4799C53.5094 74.9999 54.9294 75.8399 55.6094 76.4599L56.4494 75.2399ZM54.0894 85.8799C54.9494 84.0399 55.9494 81.5999 56.6894 79.5199L55.5094 78.7399C54.6894 80.9799 53.5494 83.5399 52.7494 85.0799L54.0894 85.8799ZM53.1894 69.1399C54.3094 69.6999 55.6894 70.6199 56.3294 71.2799L57.2094 70.0999C56.5294 69.4399 55.1694 68.5999 54.0494 68.0799L53.1894 69.1399ZM61.6094 71.0799H65.9094V72.7599H61.6094V71.0799ZM67.3694 74.0399V71.0799H70.5694V69.7599H67.3694V67.8599H65.9094V69.7599H61.6094V67.8599H60.1894V69.7599H57.2094V71.0799H60.1894V74.0399H63.0294V75.4599H57.6694V86.0799H58.9694V76.7399H63.0294V82.6599C62.1894 81.7799 61.7094 80.0399 61.6294 77.8799H59.7294V78.8999H60.8694C60.8894 79.1599 60.9094 79.4199 60.9494 79.6599H60.6094C60.4694 80.8799 59.9894 82.2199 59.0294 82.9799C59.2294 83.0999 59.5494 83.3999 59.6894 83.5999C60.4494 82.9599 60.9294 82.0599 61.2294 81.0599C61.4894 82.0799 61.9094 82.8999 62.4494 83.4599C62.5694 83.2599 62.8294 83.0199 63.0294 82.8599V85.8999H64.3694V76.7399H68.6294V82.6599C67.6694 81.8199 67.0894 80.0999 66.9894 77.8799H65.0894V78.8999H66.2294C66.2494 79.1599 66.2894 79.3999 66.3094 79.6399H65.9894C65.8494 80.8199 65.3694 82.0999 64.3894 82.8199C64.6094 82.9599 64.9294 83.2599 65.0494 83.4599C65.8094 82.8399 66.3094 81.9599 66.6094 80.9999C66.9094 82.0399 67.3694 82.8399 67.9494 83.3999C68.0894 83.1799 68.4094 82.9199 68.6294 82.7599V84.6599C68.6294 84.8999 68.5494 84.9399 68.3094 84.9399C68.0694 84.9599 67.2894 84.9599 66.4494 84.9399C66.6094 85.2799 66.7694 85.7399 66.8294 86.0799C68.0494 86.0799 68.8494 86.0599 69.3294 85.8799C69.8094 85.6799 69.9494 85.3399 69.9494 84.6599V75.4599H64.3694V74.0399H67.3694ZM73.5094 84.5999H75.2694V76.8999C75.2694 75.3599 75.1294 73.7999 75.0494 72.3199H75.1294L76.7094 75.3399L82.0494 84.5999H83.9494V69.9399H82.1894V77.5599C82.1894 79.0799 82.3294 80.7199 82.4294 82.1999H82.3294L80.7694 79.1799L75.4294 69.9399H73.5094V84.5999ZM91.003 84.5999H92.863V71.4999H97.303V69.9399H86.563V71.4999H91.003V84.5999ZM107.376 71.7799C106.576 70.9399 105.656 70.2599 104.216 70.0999V67.8799H102.896V70.1399C100.956 70.4199 99.6356 71.8399 99.6356 73.8399C99.6356 78.1999 105.896 77.3999 105.896 81.0399C105.896 82.4399 105.036 83.3399 103.376 83.3399C102.016 83.3399 100.876 82.6799 99.9356 81.8799L99.0756 83.1199C100.036 83.9999 101.476 84.6999 102.896 84.8399V87.0599H104.216V84.7999C106.336 84.4999 107.676 83.0399 107.676 80.9199C107.676 76.1199 101.416 77.0199 101.416 73.7599C101.416 72.4599 102.296 71.5999 103.676 71.5999C104.896 71.5999 105.576 72.0599 106.396 72.8599L107.376 71.7799ZM114.229 77.6799C112.489 77.6799 111.609 76.3999 111.609 74.4199C111.609 72.4199 112.689 71.0999 114.089 71.0999C115.969 71.0999 117.089 72.6999 117.289 75.7199C116.309 77.1199 115.209 77.6799 114.229 77.6799ZM110.169 83.3599C110.989 84.2199 112.109 84.8599 113.689 84.8599C116.449 84.8599 119.009 82.5799 119.009 76.6399C119.009 71.9799 116.909 69.6599 114.089 69.6599C111.809 69.6599 109.889 71.5799 109.889 74.4199C109.889 77.4599 111.489 79.0399 113.929 79.0399C115.169 79.0399 116.429 78.3199 117.309 77.2199C117.169 81.7799 115.529 83.3399 113.629 83.3399C112.689 83.3399 111.789 82.9199 111.169 82.2199L110.169 83.3599ZM125.323 77.6799C123.583 77.6799 122.703 76.3999 122.703 74.4199C122.703 72.4199 123.783 71.0999 125.183 71.0999C127.063 71.0999 128.183 72.6999 128.383 75.7199C127.403 77.1199 126.303 77.6799 125.323 77.6799ZM121.263 83.3599C122.083 84.2199 123.203 84.8599 124.783 84.8599C127.543 84.8599 130.103 82.5799 130.103 76.6399C130.103 71.9799 128.003 69.6599 125.183 69.6599C122.903 69.6599 120.983 71.5799 120.983 74.4199C120.983 77.4599 122.583 79.0399 125.023 79.0399C126.263 79.0399 127.523 78.3199 128.403 77.2199C128.263 81.7799 126.623 83.3399 124.723 83.3399C123.783 83.3399 122.883 82.9199 122.263 82.2199L121.263 83.3599ZM136.417 77.6799C134.677 77.6799 133.797 76.3999 133.797 74.4199C133.797 72.4199 134.877 71.0999 136.277 71.0999C138.157 71.0999 139.277 72.6999 139.477 75.7199C138.497 77.1199 137.397 77.6799 136.417 77.6799ZM132.357 83.3599C133.177 84.2199 134.297 84.8599 135.877 84.8599C138.637 84.8599 141.197 82.5799 141.197 76.6399C141.197 71.9799 139.097 69.6599 136.277 69.6599C133.997 69.6599 132.077 71.5799 132.077 74.4199C132.077 77.4599 133.677 79.0399 136.117 79.0399C137.357 79.0399 138.617 78.3199 139.497 77.2199C139.357 81.7799 137.717 83.3399 135.817 83.3399C134.877 83.3399 133.977 82.9199 133.357 82.2199L132.357 83.3599ZM158.231 74.2199V77.6999H152.711C152.931 76.5999 153.071 75.4399 153.171 74.2199H158.231ZM146.891 77.6999V74.2199H151.631C151.531 75.4599 151.411 76.5999 151.151 77.6999H146.891ZM153.871 70.6599C153.411 71.4199 152.791 72.2599 152.211 72.8799H146.911C147.631 72.1599 148.291 71.4199 148.871 70.6599H153.871ZM155.831 84.3799C154.931 84.3799 154.771 84.2799 154.771 83.6799V79.0399H159.771V72.8799H153.931C154.671 71.9999 155.451 70.9399 155.971 69.9999L154.971 69.3199L154.711 69.3999H149.771C150.071 68.9599 150.351 68.5599 150.591 68.1399L148.951 67.8399C147.891 69.8199 145.891 72.2799 143.191 74.0799C143.531 74.3199 144.011 74.7999 144.231 75.1599C144.651 74.8599 145.031 74.5799 145.411 74.2599V79.0399H150.751C149.831 81.5799 147.871 83.5799 143.391 84.6799C143.731 84.9999 144.091 85.5599 144.231 85.9399C149.251 84.5799 151.371 82.1599 152.351 79.0399H153.251V83.6999C153.251 85.2799 153.751 85.7199 155.671 85.7199H159.011C160.711 85.7199 161.151 85.0199 161.351 82.1799C160.911 82.0999 160.311 81.8599 159.971 81.5999C159.891 83.9999 159.751 84.3799 158.891 84.3799H155.831ZM170.891 78.5399V77.2199H173.931V78.5399H170.891ZM170.891 74.9199H173.931V76.2399H170.891V74.9199ZM178.431 74.9199V76.2399H175.371V74.9199H178.431ZM178.431 78.5399H175.371V77.2199H178.431V78.5399ZM175.371 83.5799V81.9199H180.971V80.7799H175.371V79.5599H179.791V73.8999H175.371V72.6999H179.131V71.5799H175.371V70.5599H173.931V71.5799H170.011V72.6999H173.931V73.8999H169.571V79.5599H173.931V80.7799H168.531V81.9199H173.931V83.5799H175.371ZM169.811 69.7599H179.411V72.1799H180.851V68.5799H168.451V72.1799H169.811V69.7599ZM166.711 71.1999C166.451 70.3399 165.991 69.0399 165.651 67.9999L164.331 68.3799C164.671 69.4199 165.111 70.7799 165.351 71.6399L166.711 71.1999ZM167.111 77.1399L166.891 77.1999H165.771C166.331 75.8199 166.991 74.1399 167.511 72.6999H163.291V74.0399H165.611C165.051 75.6199 164.371 77.3199 163.811 78.4999H166.431C166.151 79.8799 165.731 81.4399 165.171 82.5399C164.511 82.8999 163.751 83.7799 162.991 84.8799L164.011 86.2199C164.591 84.9599 165.251 83.6999 165.711 83.6999C166.151 83.6999 166.911 84.3799 167.711 84.8599C169.171 85.7399 170.931 85.9599 173.551 85.9599C175.931 85.9599 179.711 85.8399 181.191 85.7399C181.231 85.2999 181.451 84.5999 181.651 84.1999C179.411 84.4199 176.191 84.6199 173.611 84.6199C171.251 84.6199 169.431 84.4799 168.031 83.6199C167.331 83.2199 166.891 82.8599 166.511 82.6199C167.171 81.1999 167.691 79.3199 168.011 77.5799L167.111 77.1399Z" fill="#646464"/>
<path fill-rule="evenodd" clip-rule="evenodd" d="M68.1333 1.5332C68.1333 0.980918 68.581 0.533203 69.1333 0.533203H78.2C78.6436 0.533203 79.0342 0.825454 79.1594 1.25104L86.5038 26.2221H110.664L114.697 10.0888H93.3111C92.7588 10.0888 92.3111 9.64104 92.3111 9.08876C92.3111 8.53647 92.7588 8.08876 93.3111 8.08876H115.978C116.286 8.08876 116.576 8.23063 116.766 8.47335C116.955 8.71606 117.023 9.03255 116.948 9.3313L112.415 27.4646C112.303 27.9098 111.903 28.2221 111.444 28.2221H85.7556C85.3119 28.2221 84.9214 27.9298 84.7962 27.5043L77.4518 2.5332H69.1333C68.581 2.5332 68.1333 2.08549 68.1333 1.5332ZM90.2889 37.7999C90.2889 41.1381 87.5827 43.8443 84.2444 43.8443C80.9062 43.8443 78.2 41.1381 78.2 37.7999C78.2 34.4616 80.9062 31.7554 84.2444 31.7554C87.5827 31.7554 90.2889 34.4616 90.2889 37.7999ZM111.444 43.8443C114.783 43.8443 117.489 41.1381 117.489 37.7999C117.489 34.4616 114.783 31.7554 111.444 31.7554C108.106 31.7554 105.4 34.4616 105.4 37.7999C105.4 41.1381 108.106 43.8443 111.444 43.8443Z" fill="#646464"/>
</svg>
