<svg width="232" height="232" viewBox="0 0 232 232" fill="none" xmlns="http://www.w3.org/2000/svg">
<path d="M0 0H232V232H0V0Z" fill="#E5E5E5"/>
<g clip-path="url(#clip0_2:10)">
<path d="M139.836 165.995C137.001 165.298 131.839 164.444 126.987 162.735C119.288 160.028 112.016 160.44 104.153 162.613C97.2257 164.525 89.6669 165.42 82.5174 164.908C74.988 164.368 70.7848 157.849 72.7899 150.715C78.3552 130.897 90.7893 116.924 110.426 109.825C117.493 107.268 123.976 110.162 129.781 113.677C142.239 121.218 151.557 131.693 156.754 145.399C161.606 158.215 155.883 166.146 139.836 165.995Z" fill="#959595" fill-opacity="0.5"/>
<path d="M109.754 86.7716C109.935 94.0688 106.749 99.5999 101.482 101.151C96.5069 102.609 91.041 99.8322 87.2412 93.6796C83.4121 87.4862 81.9448 80.8629 84.4761 73.7923C87.3464 65.7804 94.9577 63.6656 101.675 68.9236C106.527 72.7232 109.578 79.4627 109.754 86.7716Z" fill="#959595" fill-opacity="0.5"/>
<path d="M121.258 86.5621C121.363 79.1719 124.058 72.9378 130.021 68.4758C136.177 63.8744 143.057 65.8788 146.214 72.8914C149.833 80.9381 146.53 93.5514 139.369 98.7687C135.797 101.371 131.915 102.783 127.683 100.349C122.334 97.2813 121.188 92.1686 121.258 86.5621Z" fill="#959595" fill-opacity="0.5"/>
<path d="M82.9853 110.731C82.9853 117.854 78.1916 123.187 71.9599 123.001C64.7578 122.786 58.0059 115.036 58 106.966C57.9942 100.122 62.4779 94.8466 68.4232 94.7014C75.8007 94.5213 82.9853 102.429 82.9853 110.731Z" fill="#959595" fill-opacity="0.5"/>
<path d="M148.02 110.952C147.915 102.626 154.983 94.6145 162.36 94.7017C168.411 94.7772 172.912 99.8783 173 106.757C173.105 115.06 166.09 123.008 158.66 123.002C152.732 122.996 148.108 117.761 148.02 110.952Z" fill="#959595" fill-opacity="0.5"/>
</g>
<defs>
<clipPath id="clip0_2:10">
<rect width="115" height="100" fill="white" transform="translate(58 66)"/>
</clipPath>
</defs>
</svg>
