<svg width="204" height="95" viewBox="0 0 204 95" fill="none" xmlns="http://www.w3.org/2000/svg">
<path d="M22.8851 76.4064H25.6251L25.1451 76.8264C25.6251 76.9864 26.1451 77.2064 26.6651 77.4464L22.8851 77.5064V76.4064ZM16.7251 75.4064V74.1664H21.4451V75.4064H16.7251ZM16.7251 72.0064H21.4451V73.2064H16.7251V72.0064ZM27.7451 72.0064V73.2064H22.8851V72.0064H27.7451ZM27.7451 75.4064H22.8851V74.1664H27.7451V75.4064ZM31.2251 79.7264H26.4651V78.4464L28.4451 78.3864C28.8851 78.6664 29.2851 78.9464 29.5851 79.1864L30.4651 78.3464C29.6651 77.7264 28.2451 76.9464 26.8851 76.4064H29.2051V70.9864H22.8851V69.8664H30.4251V68.6664H22.8851V67.1664H21.4451V68.6664H13.7851V69.8664H21.4451V70.9864H15.3251V76.4064H21.4451V77.5064C18.5851 77.5464 15.9651 77.5664 13.9851 77.5664L14.0451 78.7264C16.9251 78.6864 20.9251 78.6064 25.0251 78.4864V79.7264H13.2051V80.9464H17.3451L16.3651 81.7864C17.5651 82.5264 18.9651 83.6064 19.6651 84.3864L20.7251 83.4064C20.0251 82.6664 18.6251 81.6264 17.4451 80.9464H25.0251V83.7664C25.0251 84.0264 24.9251 84.1064 24.6251 84.1264C24.3051 84.1464 23.1851 84.1464 21.9651 84.1064C22.1651 84.4664 22.3851 85.0064 22.4451 85.3864C24.0451 85.3864 25.0451 85.3864 25.6651 85.1664C26.3051 84.9664 26.4651 84.5664 26.4651 83.8064V80.9464H31.2251V79.7264ZM48.6651 68.9464V70.2864H36.3451V68.9464H48.6651ZM36.3451 71.3264H50.1051V67.9064H34.9051V73.7664C34.9051 76.9664 34.7651 81.4264 33.0651 84.6064C33.4251 84.7264 34.0651 85.0864 34.3451 85.3064C36.0851 82.0264 36.3451 77.1464 36.3451 73.7664V71.3264ZM49.3851 73.9864C48.4251 73.6264 46.8851 73.3264 45.4651 73.1664L45.2051 73.9264C46.5651 74.1064 48.1051 74.4664 49.0051 74.8064L49.3851 73.9864ZM48.8451 71.3664C47.9651 71.6464 46.4251 72.1064 45.4251 72.2664L45.7851 72.9664C46.8051 72.8464 48.2851 72.5864 49.3251 72.1664L48.8451 71.3664ZM44.2651 74.6264V71.6664H42.8651V74.6264H44.2651ZM37.7251 74.8264C38.9251 74.6064 40.5451 74.2464 42.0451 73.9264V73.0664C40.3251 73.3864 38.5851 73.7064 37.4451 73.9064L37.7251 74.8264ZM37.7651 72.3064C38.9851 72.4864 40.3851 72.8064 41.2051 73.1464L41.5651 72.3064C40.7051 71.9864 39.3251 71.7064 38.0451 71.5664L37.7651 72.3064ZM47.5451 84.0864C47.2051 83.6064 46.5451 82.9864 45.9451 82.4864H47.0451V80.0464H43.2451V79.2864H49.0651C48.8651 82.4464 48.6651 83.6464 48.4051 83.9664C48.2851 84.1264 48.1451 84.1464 47.9051 84.1464C47.8051 84.1464 47.6251 84.1464 47.4451 84.1464L47.5451 84.0864ZM43.2451 82.4864H45.3251L44.7851 82.7664C44.9451 82.8864 45.1251 83.0264 45.2851 83.1664L43.2451 83.3064V82.4864ZM45.8451 81.7264H43.2451V80.8064H45.8451V81.7264ZM39.3051 81.7264V80.8064H41.9651V81.7264H39.3051ZM41.9651 79.2864V80.0464H38.7851C39.1051 79.7864 39.3851 79.5464 39.6651 79.2864H41.9651ZM38.5451 75.6864H41.0251V76.8264H38.5451V75.6864ZM42.2051 75.6864H44.7851V76.8264H42.2051V75.6864ZM45.9851 75.6864H48.6051V76.8264H45.9851V75.6864ZM40.5251 78.3464C40.7051 78.1064 40.9051 77.8664 41.0851 77.6064H49.8851V74.9264H37.3051V77.6064H39.5451C38.8051 78.5664 37.6251 79.6064 36.0651 80.4064C36.3851 80.5664 36.8051 80.9664 37.0451 81.2664C37.4451 81.0264 37.8051 80.7664 38.1651 80.5264V82.4864H41.9651V83.3864C40.0851 83.5064 38.3651 83.6264 37.0251 83.6864L37.1251 84.7664C39.5451 84.5664 42.8851 84.3064 46.1451 84.0264C46.3251 84.2464 46.4851 84.4264 46.6051 84.6064L46.7051 84.5464C46.7851 84.7664 46.8251 85.0064 46.8451 85.2064C47.5051 85.2464 48.1451 85.2464 48.5251 85.2064C48.9651 85.1664 49.2851 85.0464 49.5651 84.7064C50.0051 84.2064 50.2251 82.7864 50.4251 78.8864C50.4451 78.7264 50.4651 78.3464 50.4651 78.3464H40.5251ZM63.3851 83.6064C61.9851 83.6064 61.7251 83.3664 61.7251 82.3064V79.4064L70.8651 78.2064L70.6651 76.8264L61.7251 77.9864V74.8664L69.5251 73.7664L69.3251 72.3864L61.7251 73.4464V70.3464C64.3051 69.8064 66.7451 69.1864 68.6451 68.4264L67.3851 67.2664C64.3051 68.5464 58.6651 69.6264 53.7251 70.2864C53.8851 70.6064 54.1051 71.2064 54.1651 71.5664C56.1251 71.3264 58.1851 71.0064 60.2051 70.6264V73.6664L54.0851 74.5064L54.3051 75.9064L60.2051 75.0864V78.1864L53.4651 79.0664L53.6851 80.4664L60.2051 79.6064V82.2664C60.2051 84.4664 60.9051 85.0464 63.3051 85.0464H68.4051C70.6051 85.0464 71.1051 84.1664 71.3651 81.4064C70.9051 81.2864 70.2851 81.0664 69.9051 80.7864C69.7451 83.0864 69.5451 83.6064 68.3651 83.6064H63.3851ZM80.1851 77.1864L80.0051 75.8464L77.5651 76.6064V73.5064C78.5251 72.2264 79.5651 70.5464 80.2851 69.0864L79.3251 68.3864L79.0251 68.4664H73.5051V69.8664H78.2051C77.6451 71.1064 76.8451 72.4864 76.1251 73.4064V77.0464C74.9651 77.4064 73.8851 77.7064 73.0451 77.9464L73.3651 79.4464C74.1851 79.1864 75.1251 78.8664 76.1251 78.5464V83.6464C76.1251 83.9264 76.0251 84.0064 75.7251 84.0264C75.4451 84.0464 74.4651 84.0464 73.3851 84.0064C73.6051 84.3864 73.8251 84.9464 73.9051 85.3464C75.3451 85.3464 76.2251 85.3264 76.8051 85.0864C77.3851 84.8664 77.5651 84.4864 77.5651 83.6664V78.0664L80.1851 77.1864ZM89.2051 76.4664C87.5251 79.8064 83.8051 82.7064 79.2651 84.2264C79.5251 84.5264 79.9451 85.0864 80.1251 85.4464C82.5651 84.5864 84.7451 83.3464 86.5651 81.8464C87.8651 82.9464 89.3651 84.3464 90.1251 85.2864L91.2651 84.3064C90.4651 83.3864 88.8851 82.0264 87.5651 80.9464C88.8251 79.7664 89.8851 78.4264 90.7051 76.9864L89.2051 76.4664ZM86.7851 69.8464L87.0451 69.7464C86.8851 69.0064 86.4051 67.8864 85.8851 67.0464L84.5051 67.4664C84.9051 68.2064 85.2851 69.1264 85.4851 69.8464H80.3451V71.2264H84.0851C83.4451 72.3864 82.3651 74.1864 81.9851 74.5864C81.7051 74.9664 81.1451 75.0864 80.7451 75.1864C80.8851 75.5064 81.1051 76.2264 81.1651 76.5864C81.5251 76.4464 82.1051 76.3464 85.4651 76.1064C83.9851 77.6264 82.1051 78.9864 80.0851 79.9064C80.3451 80.2064 80.7451 80.7264 80.9451 81.0464C84.4651 79.3264 87.5051 76.4464 89.2251 73.3464L87.8451 72.8464C87.5051 73.5064 87.0851 74.1464 86.6051 74.7864L83.4251 74.9664C84.1051 73.8664 85.0051 72.3464 85.6451 71.2264H91.3451V69.8464H86.7851ZM94.2051 83.8664H96.0651V69.2064H94.2051V83.8664ZM100.064 83.8664H103.824C108.244 83.8664 110.664 81.1264 110.664 76.4864C110.664 71.8264 108.244 69.2064 103.744 69.2064H100.064V83.8664ZM101.924 82.3464V70.7064H103.584C107.044 70.7064 108.744 72.7664 108.744 76.4864C108.744 80.1864 107.044 82.3464 103.584 82.3464H101.924ZM128.835 74.3464H123.115V72.4064H128.835V74.3464ZM128.835 77.4064H123.115V75.4464H128.835V77.4064ZM128.835 80.4664H123.115V78.5064H128.835V80.4664ZM121.755 71.2464V81.6264H130.235V71.2464H126.175C126.375 70.6664 126.555 69.9864 126.755 69.3464H130.775V68.0664H121.055V69.3464H125.155C125.055 69.9464 124.895 70.6664 124.755 71.2464H121.755ZM114.695 74.5664H119.375V73.2664H114.775C115.555 72.2664 116.295 71.1064 116.975 69.8664C118.195 71.2064 119.535 72.7864 120.175 73.8864L120.995 72.7064C120.315 71.6464 118.875 70.0064 117.555 68.6864C117.715 68.3464 117.855 68.0064 117.975 67.6864L116.895 66.9864C115.935 69.5064 114.155 72.0464 112.495 73.5264C112.815 73.8864 113.175 74.4464 113.335 74.8664C113.795 74.4264 114.235 73.9064 114.695 73.3464V74.5664ZM119.815 76.3664L119.575 76.4464H113.375V77.7264H118.975C118.375 79.0664 117.435 80.5864 116.615 81.5864C116.035 81.0664 115.455 80.5464 114.935 80.1464L114.015 80.9864C115.435 82.1464 117.215 83.9864 118.075 85.1864L119.055 84.2264C118.695 83.7264 118.175 83.1464 117.615 82.5664C118.715 81.1464 119.995 78.9264 120.735 76.9664L119.815 76.3664ZM123.795 82.0064C123.075 82.8664 121.535 83.8864 120.135 84.4464C120.455 84.7064 120.895 85.1464 121.115 85.4464C122.495 84.8664 124.115 83.7864 125.075 82.7664L123.795 82.0064ZM126.735 82.8464C127.875 83.6064 129.255 84.7264 129.915 85.4464L131.095 84.5864C130.375 83.8664 128.935 82.8064 127.855 82.1064L126.735 82.8464ZM142.595 83.3264V78.2464H149.015V76.8064H142.595V72.4464H149.755V70.9864H142.595V67.1464H141.075V70.9864H137.015C137.455 69.9664 137.815 68.8864 138.135 67.7864L136.635 67.4664C135.855 70.3064 134.575 73.0664 132.935 74.8264C133.335 75.0264 133.995 75.4664 134.275 75.7064C135.035 74.8064 135.735 73.7064 136.375 72.4464H141.075V76.8064H135.135V78.2464H141.075V83.3264H132.975V84.7664H150.695V83.3264H142.595ZM156.895 82.4064V76.8264H166.815V82.4064H156.895ZM166.815 69.9664V75.3664H156.895V69.9664H166.815ZM155.395 68.5064V85.1664H156.895V83.8664H166.815V85.0864H168.375V68.5064H155.395ZM188.835 71.1664H186.975V69.7864H188.835V71.1664ZM188.835 73.5264H186.975V72.1064H188.835V73.5264ZM181.355 72.1064H183.155V73.5264H181.355V72.1064ZM181.355 69.7864H183.155V71.1664H181.355V69.7864ZM185.935 72.1064V73.5264H184.195V72.1064H185.935ZM184.195 71.1664V69.7864H185.935V71.1664H184.195ZM190.135 68.7864H187.155V67.1464H185.935V68.7864H184.195V67.1464H182.995V68.7864H180.115V74.5264H190.135V68.7864ZM190.735 75.5064H179.455V76.6464H190.735V75.5064ZM181.995 78.6664H188.195V80.3864H181.995V78.6664ZM189.495 81.3864V77.6664H180.735V81.3864H189.495ZM177.195 69.7264C176.875 69.0264 176.175 67.9864 175.475 67.2264L174.395 67.9264C175.055 68.7064 175.755 69.7864 176.035 70.5064L177.195 69.7264ZM179.475 78.1664C179.115 77.7264 177.715 76.1064 177.015 75.3464C177.915 74.0264 178.695 72.5464 179.235 71.0464L178.435 70.5064L178.175 70.5664H172.915V71.9264H177.455C176.335 74.3664 174.395 76.7664 172.515 78.1264C172.735 78.3864 173.055 79.1264 173.175 79.5464C173.935 78.9664 174.695 78.2264 175.435 77.3864V85.3864H176.795V76.9664C177.435 77.8064 178.175 78.8064 178.535 79.3664L179.475 78.1664ZM187.415 83.8464C187.755 83.2664 188.135 82.5864 188.515 81.9064L187.155 81.5464C186.935 82.2064 186.535 83.1464 186.155 83.8464H184.015C183.795 83.2064 183.435 82.2864 183.095 81.5864L181.935 81.9064C182.215 82.5064 182.475 83.2464 182.695 83.8464H179.015V85.0064H190.915V83.8464H187.415Z" fill="#646464"/>
<path fill-rule="evenodd" clip-rule="evenodd" d="M101.726 0.933105C98.4998 0.933105 95.6524 3.02593 93.4134 5.36888C91.1445 7.74322 89.3082 10.5798 88.1253 12.4357C86.5014 14.9836 83.8122 19.7619 82.1296 24.623C81.289 27.0517 80.6813 29.5526 80.6074 31.8338C80.5338 34.1097 80.9896 36.2891 82.4173 37.9201C84.0616 39.7984 86.8291 41.1071 90.0166 41.9539C93.2349 42.8088 97.0208 43.2294 100.856 43.2294C104.279 43.2294 107.769 42.8945 110.963 42.2196C111.009 42.213 111.055 42.2032 111.099 42.1905C111.44 42.1173 111.777 42.0401 112.11 41.9591C115.589 41.1137 118.723 39.8249 120.915 38.0362C122.58 36.6771 123.001 34.4432 122.875 32.1534C122.748 29.8267 122.045 27.1613 121.131 24.5797C119.3 19.4089 116.528 14.3194 115.327 12.4357C114.166 10.6149 112.266 7.78475 109.959 5.40153C107.694 3.06204 104.828 0.933105 101.726 0.933105ZM111.822 39.9705C115.076 39.1609 117.818 37.9818 119.65 36.4866C120.559 35.7449 120.993 34.3496 120.878 32.263C120.766 30.2134 120.134 27.7552 119.246 25.2472C117.473 20.2388 114.771 15.2851 113.64 13.5107C112.496 11.7155 110.684 9.02553 108.522 6.79273C106.318 4.51618 103.957 2.9331 101.726 2.93311C99.355 2.93311 97.0077 4.50248 94.8594 6.75064C92.741 8.96742 90.9972 11.6509 89.8119 13.5107C88.2359 15.9834 85.6329 20.616 84.0196 25.2772C83.2123 27.6096 82.6712 29.8977 82.6064 31.8986C82.5414 33.9047 82.9571 35.5003 83.9222 36.6027C85.1773 38.0364 87.4838 39.2117 90.5301 40.0209C90.9026 40.1199 91.2841 40.2128 91.6737 40.2997V23.0812C91.6737 22.529 92.1214 22.0812 92.6737 22.0812H110.822C111.374 22.0812 111.822 22.529 111.822 23.0812V39.9705Z" fill="#646464"/>
</svg>
