<svg width="193" height="97" viewBox="0 0 193 97" fill="none" xmlns="http://www.w3.org/2000/svg">
<path d="M22.7575 84.94C21.3575 84.94 21.0975 84.7 21.0975 83.64V80.74L30.2375 79.54L30.0375 78.16L21.0975 79.32V76.2L28.8975 75.1L28.6975 73.72L21.0975 74.78V71.68C23.6775 71.14 26.1175 70.52 28.0175 69.76L26.7575 68.6C23.6775 69.88 18.0375 70.96 13.0975 71.62C13.2575 71.94 13.4775 72.54 13.5375 72.9C15.4975 72.66 17.5575 72.34 19.5775 71.96V75L13.4575 75.84L13.6775 77.24L19.5775 76.42V79.52L12.8375 80.4L13.0575 81.8L19.5775 80.94V83.6C19.5775 85.8 20.2775 86.38 22.6775 86.38H27.7775C29.9775 86.38 30.4775 85.5 30.7375 82.74C30.2775 82.62 29.6575 82.4 29.2775 82.12C29.1175 84.42 28.9175 84.94 27.7375 84.94H22.7575ZM39.5575 78.52L39.3775 77.18L36.9375 77.94V74.84C37.8975 73.56 38.9375 71.88 39.6575 70.42L38.6975 69.72L38.3975 69.8H32.8775V71.2H37.5775C37.0175 72.44 36.2175 73.82 35.4975 74.74V78.38C34.3375 78.74 33.2575 79.04 32.4175 79.28L32.7375 80.78C33.5575 80.52 34.4975 80.2 35.4975 79.88V84.98C35.4975 85.26 35.3975 85.34 35.0975 85.36C34.8175 85.38 33.8375 85.38 32.7575 85.34C32.9775 85.72 33.1975 86.28 33.2775 86.68C34.7175 86.68 35.5975 86.66 36.1775 86.42C36.7575 86.2 36.9375 85.82 36.9375 85V79.4L39.5575 78.52ZM48.5775 77.8C46.8975 81.14 43.1775 84.04 38.6375 85.56C38.8975 85.86 39.3175 86.42 39.4975 86.78C41.9375 85.92 44.1175 84.68 45.9375 83.18C47.2375 84.28 48.7375 85.68 49.4975 86.62L50.6375 85.64C49.8375 84.72 48.2575 83.36 46.9375 82.28C48.1975 81.1 49.2575 79.76 50.0775 78.32L48.5775 77.8ZM46.1575 71.18L46.4175 71.08C46.2575 70.34 45.7775 69.22 45.2575 68.38L43.8775 68.8C44.2775 69.54 44.6575 70.46 44.8575 71.18H39.7175V72.56H43.4575C42.8175 73.72 41.7375 75.52 41.3575 75.92C41.0775 76.3 40.5175 76.42 40.1175 76.52C40.2575 76.84 40.4775 77.56 40.5375 77.92C40.8975 77.78 41.4775 77.68 44.8375 77.44C43.3575 78.96 41.4775 80.32 39.4575 81.24C39.7175 81.54 40.1175 82.06 40.3175 82.38C43.8375 80.66 46.8775 77.78 48.5975 74.68L47.2175 74.18C46.8775 74.84 46.4575 75.48 45.9775 76.12L42.7975 76.3C43.4775 75.2 44.3775 73.68 45.0175 72.56H50.7175V71.18H46.1575ZM57.8175 71.16C57.6175 70.42 57.1375 69.32 56.6775 68.46L55.4175 68.9C55.8175 69.76 56.2975 70.9 56.4975 71.64L57.8175 71.16ZM56.1775 75.76V73.18H60.3975V71.78H52.6775V73.18H54.8175V76.22C54.8175 79.12 54.5575 82.76 52.2775 85.84C52.6175 86.04 53.1175 86.4 53.3375 86.68C55.5975 83.68 56.0975 80.22 56.1775 77.12H58.4375C58.2975 82.58 58.1175 84.52 57.8175 84.96C57.6575 85.2 57.4975 85.24 57.2575 85.24C56.9575 85.24 56.3375 85.22 55.6175 85.16C55.8375 85.52 55.9775 86.08 55.9975 86.48C56.7175 86.52 57.4175 86.52 57.8575 86.46C58.3375 86.42 58.6975 86.26 58.9975 85.84C59.4775 85.16 59.6375 82.98 59.7975 76.44C59.8175 76.22 59.8175 75.76 59.8175 75.76H56.1775ZM70.4375 72.48V71.12H63.5375C63.8375 70.36 64.1175 69.56 64.3375 68.72L62.8975 68.46C62.3175 70.82 61.2375 73.08 59.8175 74.54C60.1575 74.76 60.7375 75.22 60.9975 75.44C61.6975 74.64 62.3775 73.62 62.9375 72.48H70.4375ZM69.3775 76.52C68.7575 77.22 67.8175 78.06 66.9575 78.76C66.6575 77.68 66.4575 76.54 66.2775 75.38C67.6575 75 68.9775 74.56 70.0575 74.1L68.8575 73.06C67.2375 73.86 64.3375 74.68 61.7775 75.22V83.84C61.7775 84.76 61.3775 85.24 61.0975 85.48C61.3175 85.72 61.7175 86.28 61.8575 86.6C62.1975 86.26 62.7575 86 66.4175 84.3C66.3175 83.98 66.2175 83.38 66.1975 82.98L63.1975 84.3V76.14C63.7975 76 64.4175 75.86 65.0175 75.7C65.6975 80.44 67.0375 84.42 69.6975 86.42C69.9175 86.02 70.3775 85.48 70.7175 85.22C69.1975 84.16 68.0975 82.3 67.3375 80.02C68.3375 79.32 69.5375 78.34 70.4575 77.44L69.3775 76.52ZM74.7775 71.54H88.4175V73.24H89.9175V70.26H82.6575C82.3975 69.68 82.0175 68.92 81.6775 68.34L80.1375 68.78C80.3975 69.22 80.6575 69.76 80.8775 70.26H73.3175V73.56H74.7775V71.54ZM76.9775 72.58C75.9175 75.06 74.1575 77.44 72.3175 78.96C72.5975 79.28 73.0775 79.96 73.2375 80.24C73.9175 79.64 74.5975 78.92 75.2375 78.14V86.74H76.6575V76.16C77.2975 75.16 77.8775 74.1 78.3375 73.04L76.9775 72.58ZM87.6975 80.56H80.7575V78.24H87.6975V80.56ZM80.7575 84.32V81.8H87.6975V84.32H80.7575ZM90.1775 74.96V73.62H78.5175V74.96H83.3175C83.1775 75.6 83.0175 76.34 82.8375 76.96H79.3175V86.76H80.7575V85.62H87.6975V86.66H89.1575V76.96H84.2975C84.5175 76.34 84.7375 75.62 84.9375 74.96H90.1775ZM110.197 70.2H102.597C102.377 69.62 102.037 68.88 101.717 68.32L100.237 68.62C100.477 69.08 100.737 69.68 100.937 70.2H92.9175V71.5H110.197V70.2ZM96.8975 73.88H106.297V75.68H96.8975V73.88ZM107.837 76.78V72.78H95.4375V76.78H107.837ZM110.437 81.6H102.317V81.08C104.537 80.54 106.817 79.72 108.517 78.74L107.517 77.9L107.197 77.98H94.5975V79.2H104.837C103.597 79.7 102.117 80.12 100.777 80.4V81.6H92.7375V82.9H100.777V85.18C100.777 85.46 100.677 85.54 100.297 85.56C99.9575 85.58 98.5975 85.58 97.2575 85.54C97.4375 85.9 97.6775 86.38 97.7575 86.78C99.5375 86.78 100.697 86.78 101.377 86.6C102.077 86.38 102.317 86.04 102.317 85.22V82.9H110.437V81.6ZM116.797 85.46C119.277 85.46 121.597 83.64 121.597 80.42C121.597 77.2 119.617 75.76 117.177 75.76C116.297 75.76 115.637 75.98 114.997 76.34L115.357 72.1H120.897V70.54H113.757L113.297 77.4L114.277 78C115.117 77.44 115.737 77.14 116.717 77.14C118.557 77.14 119.757 78.38 119.757 80.48C119.757 82.62 118.357 83.94 116.637 83.94C114.937 83.94 113.877 83.16 113.037 82.32L112.137 83.52C113.117 84.5 114.517 85.46 116.797 85.46ZM126.771 79.52C128.791 79.52 130.111 77.82 130.111 74.86C130.111 71.92 128.791 70.26 126.771 70.26C124.771 70.26 123.451 71.92 123.451 74.86C123.451 77.82 124.771 79.52 126.771 79.52ZM126.771 78.38C125.631 78.38 124.831 77.2 124.831 74.86C124.831 72.52 125.631 71.38 126.771 71.38C127.931 71.38 128.731 72.52 128.731 74.86C128.731 77.2 127.931 78.38 126.771 78.38ZM127.211 85.46H128.431L136.531 70.26H135.291L127.211 85.46ZM136.991 85.46C138.991 85.46 140.311 83.78 140.311 80.82C140.311 77.88 138.991 76.22 136.991 76.22C134.991 76.22 133.651 77.88 133.651 80.82C133.651 83.78 134.991 85.46 136.991 85.46ZM136.991 84.34C135.831 84.34 135.031 83.16 135.031 80.82C135.031 78.48 135.831 77.34 136.991 77.34C138.131 77.34 138.931 78.48 138.931 80.82C138.931 83.16 138.131 84.34 136.991 84.34ZM153.449 79.78H148.609V75.22H153.449V79.78ZM147.189 73.88V81.1H154.909V73.88H147.189ZM144.309 84.24V70.78H157.809V84.24H144.309ZM142.809 69.3V86.72H144.309V85.64H157.809V86.72H159.389V69.3H142.809ZM171.709 72.08V70.72H174.169V72.08H171.709ZM178.029 70.72V72.08H175.529V70.72H178.029ZM174.169 74.04H169.509V75.18H180.209V74.04H175.529V73.06H179.349V69.76H175.529V68.44H174.169V69.76H170.449V73.06H174.169V74.04ZM171.849 81.2H177.829V82.42H171.849V81.2ZM171.849 79.1H177.829V80.28H171.849V79.1ZM171.849 77.04H177.829V78.18H171.849V77.04ZM179.229 83.36V76.08H170.509V83.36H179.229ZM169.589 71.3C168.949 70.8 167.749 70.02 166.749 69.42C166.889 69.18 167.029 68.96 167.149 68.74L165.929 68.32C165.029 70 163.369 71.58 161.809 72.58C162.029 72.86 162.369 73.58 162.469 73.88C163.749 73 165.029 71.76 166.049 70.42C167.089 71.08 168.289 71.9 168.909 72.44L169.589 71.3ZM164.509 73.28H167.889V72.2H164.509V73.28ZM167.509 75.62V77.2H164.429V75.62H167.509ZM164.429 80.04V78.32H167.509V80.04H164.429ZM169.549 85.56C169.129 84.58 168.209 82.84 167.469 81.58L166.429 82C166.689 82.48 166.969 82.98 167.229 83.52L164.429 84.6V81.18H168.829V74.5H163.109V84.34C163.109 85.06 162.689 85.34 162.389 85.46C162.609 85.76 162.829 86.4 162.909 86.72C163.269 86.44 163.809 86.16 167.729 84.54C168.029 85.16 168.269 85.7 168.429 86.14L169.549 85.56ZM172.689 83.62C171.949 84.48 170.649 85.22 169.449 85.74C169.749 85.98 170.269 86.48 170.469 86.76C171.729 86.14 173.169 85.1 174.029 84.06L172.689 83.62ZM175.769 84.22C177.029 85 178.429 86.02 179.269 86.76L180.349 85.96C179.449 85.22 177.989 84.24 176.649 83.46L175.769 84.22Z" fill="#646464"/>
<path fill-rule="evenodd" clip-rule="evenodd" d="M95.3404 0.204568C95.6984 -0.0681895 96.1945 -0.0681894 96.5525 0.204568L116.171 15.1523C116.668 15.5306 116.959 16.119 116.959 16.7432V41.661C116.959 43.7243 115.118 45.2024 113.1 45.2024H78.7925C76.7753 45.2024 74.9336 43.7243 74.9336 41.661V16.7432C74.9336 16.119 75.225 15.5306 75.7215 15.1523L95.3404 0.204568ZM95.9464 2.25718L76.9336 16.7432L76.9336 41.661C76.9336 42.4048 77.6519 43.2024 78.7925 43.2024H113.1C114.241 43.2024 114.959 42.4048 114.959 41.661V16.7432L95.9464 2.25718Z" fill="#646464"/>
<path d="M86.7811 23.56H105.112L105.112 44.4318H86.7811L86.7811 23.56Z" stroke="#646464" stroke-width="2"/>
</svg>
